# xmcd
#
# Track frame offsets:
#	150
#	12246
#	29600
#	42794
#	61048
#	76856
#	96891
#	109084
#	126491
#	139756
#	158090
#	173931
#
# Disc length: 2589
#
# Revision: 1
# Processed by: cddbd v1.5.2PL0 Copyright (c) Steve Scherf et al.
# Submitted via: kJams Lite (development) 1.0patch49.47
#
DISCID=960a1b0c
DTITLE=Various Artist - CB20292
DYEAR=2000
DGENRE=Country
TTITLE0=Jackson, Alan - Meat and Potato Man (Guide Vocal)
TTITLE1=Hill, Faith - There You'll Be (Guide Vocal)
TTITLE2=Strait, George - Home Improvement (Guide Vocal)
TTITLE3=Womack, Lee Ann - Am I The Only Thing You've Done Wrong (Guide Vocal)
TTITLE4=Warren Brothers, The - It Ain't Me (Guide Vocal)
TTITLE5=Evans, Sara - Let's Dance (Guide Vocal)
TTITLE6=Jackson, Alan - Meat and Potato Man
TTITLE7=Hill, Faith - There You'll Be
TTITLE8=Strait, George - Home Improvement
TTITLE9=Womack, Lee Ann - Am I The Only Thing You've Done Wrong
TTITLE10=Warren Brothers, The - It Ain't Me
TTITLE11=Evans, Sara - Let's Dance
EXTD=
EXTT0=
EXTT1=
EXTT2=
EXTT3=
EXTT4=
EXTT5=
EXTT6=
EXTT7=
EXTT8=
EXTT9=
EXTT10=
EXTT11=
PLAYORDER=
